# xmcd
#
# Track frame offsets:
#	150
#	18086
#	38491
#	54978
#	71875
#	89582
#	108048
#	126837
#	140767
#	153194
#	165518
#	183794
#
# Disc length: 2622 seconds
#
# Revision: 1
# Processed by: cddbd v1.5.2PL0 Copyright (c) Steve Scherf et al.
# Submitted via: audiograbber 1.83.01
#
DISCID=910a3c0c
DTITLE=Blue Highways 2011 - Blue Highways 2011
DYEAR=2011
DGENRE=Americana
TTITLE0=Boris McCutcheon and The Saltlicks  - Mullein People
TTITLE1=American Aquarium  - Hurricane
TTITLE2=Jimmy LaFave  - Burden to Bear
TTITLE3=Frazey Ford  - Firecracker
TTITLE4=Justin Rutledge  - The Heart Of A River
TTITLE5=The Iain Ad venture  - Action
TTITLE6=Jesse Winchester  - It's A Shame About Him
TTITLE7=Jenee Halstead  - Damascus
TTITLE8=Matt The Electrician  - Osaka In The Rain
TTITLE9=Charlie Parr  - 1922 Blues
TTITLE10=Israel Nash Gripka  - Fool's Gold
TTITLE11=The Seatsniffers - Git'r Done
EXTD=
EXTT0=
EXTT1=
EXTT2=
EXTT3=
EXTT4=
EXTT5=
EXTT6=
EXTT7=
EXTT8=
EXTT9=
EXTT10=
EXTT11=
PLAYORDER=
